<?xml version="1.0" encoding="UTF-8"?>
<svg id="Layer_2" xmlns="http://www.w3.org/2000/svg" viewBox="0 0 107.92 111.02">
  <defs>
    <style>
      .cls-1 {
        fill: #3fc2bd;
      }

      .cls-2 {
        fill: #d25c5c;
      }
    </style>
  </defs>
  <g id="Layer_1-2" data-name="Layer_1">
    <rect x="31.97" y="-.88" width="10" height="100" rx="5" ry="5" transform="translate(23.46 -10.85) rotate(24.27)"/>
    <rect x="65.95" y="14.99" width="10" height="100" rx="5" ry="5" transform="translate(32.99 -23.42) rotate(24.27)"/>
    <rect x="56.89" y="-9.93" width="10" height="100" rx="5" ry="5" transform="translate(123.86 .11) rotate(114.27)"/>
    <rect x="41.02" y="24.05" width="10" height="100" rx="5" ry="5" transform="translate(132.45 62.53) rotate(114.27)"/>
    <path class="cls-2" d="M61.92,64.16l-17.47-10.53c-.54-.32-.74-1.07-.45-1.67h0c.29-.6.96-.83,1.49-.5l17.47,10.53c.54.32.74,1.07.45,1.67h0c-.29.6-.96.83-1.49.5Z"/>
    <path class="cls-2" d="M48.76,67.09l7.02-19.14c.22-.59,1.03-.93,1.83-.77h0c.79.16,1.26.76,1.05,1.35l-7.02,19.14c-.22.59-1.03.93-1.83.77h0c-.79-.16-1.26-.76-1.05-1.35Z"/>
    <path class="cls-1" d="M91.83,66.61c-3.89-4.38-8.01-6.22-12.16-2.73s-3.2,7.68.7,12.06c3.89,4.38,8.01,6.22,12.16,2.73,4.15-3.49,3.2-7.68-.7-12.06ZM82.43,74.26c-2.49-2.8-3.1-5.48-.45-7.72,2.66-2.23,5.29-1.06,7.78,1.75,2.49,2.8,3.1,5.48.45,7.72-2.66,2.23-5.29,1.06-7.78-1.75Z"/>
    <path class="cls-1" d="M42.94,8.87c-.97-5.78-3.49-9.52-8.86-8.77s-6.79,4.81-5.81,10.59c.97,5.78,3.49,9.52,8.86,8.77,5.37-.75,6.79-4.81,5.81-10.59ZM30.9,10.36c-.62-3.7.28-6.3,3.72-6.78,3.44-.48,5.05,1.91,5.67,5.61.62,3.7-.28,6.3-3.72,6.78s-5.05-1.91-5.67-5.61Z"/>
  </g>
</svg>